# xmcd
#
# Track frame offsets:
#	150
#	17241
#	34827
#	50656
#	73356
#	88829
#	106579
#	121315
#	137265
#	153699
#
# Disc length: 2441 seconds
#
# Revision: 0
# Processed by: cddbd v1.5.2PL0 Copyright (c) Steve Scherf et al.
# Submitted via: EasyCDDAExtractor 7.5.0.1
#
DISCID=8709870a
DTITLE=Camille Jones - Barking Up The Wrong Tree
DYEAR=2008
DGENRE=R&B
TTITLE0=Shotgun
TTITLE1=Difficult Guys
TTITLE2=I Am (What You Want Me To Be)
TTITLE3=Drowning
TTITLE4=Skills To Execute
TTITLE5=Default Mechanism
TTITLE6=Out Of Fire
TTITLE7=Get Me Out
TTITLE8=Gimme Your Mouth
TTITLE9=Someday
EXTD=
EXTT0=
EXTT1=
EXTT2=
EXTT3=
EXTT4=
EXTT5=
EXTT6=
EXTT7=
EXTT8=
EXTT9=
PLAYORDER=
